<?xml version="1.0" encoding="UTF-8"?>
<svg id="Layer_2" data-name="Layer 2" xmlns="http://www.w3.org/2000/svg" viewBox="0 0 2056.83 2397.54">
  <defs>
    <style>
      .cls-1 {
        fill: #1e1e1e;
        stroke-width: 0px;
      }
    </style>
  </defs>
  <g id="Layer_1-2" data-name="Layer 1">
    <g>
      <path class="cls-1" d="M192.44,2384.91c-2.19-.19-4.27-1.36-6.46-1.62-14.7-1.75-23.78-9.81-29.61-23.42-8.02-18.7-16.99-37.01-26.27-55.13-3.67-7.17-1.34-8.99,5.26-10.83,17.07-4.78,32.84-12.24,43.6-27.05,10.9-14.99,14.87-31.99,7.94-49.46-6.58-16.59-22.29-19.49-37.93-20.18-31.11-1.39-62.3,2.72-93.41-1.03-3.58-.43-4.11,2.49-4.14,5.24-.02,2.46-.74,5.09,3.27,5.72,4.74.74,9.31,2.99,14.03,3.31,7.26.51,8.14,3.97,6.77,10.11-10.89,48.86-25.68,96.61-40.87,144.24-3.5,10.98-10.45,17.64-22.47,18.21-2.54.12-5.03,1.06-7.55,1.63-4.24.96-5.04,4.21-4.41,7.68.76,4.2,4.12,1.71,6.31,1.73,11.88.12,23.76.06,35.64.06.01-.47.02-.94.03-1.41,12.23.56,24.49.83,36.69,1.81,4.83.39,7.17-1.42,7.59-5.62.47-4.79-3.41-4.91-6.8-5.23-1.48-.14-2.96-.27-4.43-.46-14.2-1.84-16.35-4.83-12.61-19.04,5.38-20.42,10.99-40.78,16.74-61.1.64-2.25.25-5.33,3.23-6.63,5.46-2.4,19.96,3.44,22.34,9.25,10.93,26.72,22.74,53.09,31.81,80.54,1.37,4.14,2.08,8.2,8.56,7.73,15.17-1.11,30.42-1.58,45.61.39,2.65.34,5.26.44,5.75-3.32.45-3.42-.1-5.76-4.21-6.12ZM101.57,2284.88c-16.39.35-16.56.3-12.02-16.08,4.33-15.66,9.24-31.16,13.56-46.83,1.97-7.15,6.28-10.55,13.51-10.59,6.66-.03,13.36-.49,19.99.04,20.31,1.6,29.98,15.33,25.28,35.38-4.94,21.11-23.75,35.72-49.21,38.03-3.67.34-7.4.05-11.11.05Z"/>
      <path class="cls-1" d="M244.91,94.16c-14.02-22.15-13.21-56.48,1.85-78.05,10.27-14.7,21.91-18.48,38.18-11.15,5.04,2.27,8.01.75,12.01-4.96v31.3c-4.25.08-4.21-2.69-4.6-5.27-.84-5.67-3.38-10.66-7.3-14.7-3.68-3.8-8.07-6.73-13.84-4.83-5.1,1.69-7.73,5.47-8.37,10.71-2.98,24.41-1.88,48.88-.69,73.3.33,6.8,3.75,13.46,11.62,14.44,7.17.9,11.67-4.21,14.64-10,2.92-5.72,5.01-11.86,8.52-20.37,4.13,13.15,2.04,23.64,2.07,35.36-6.72-4.48-12.58-3.72-19.13-1.57-14.2,4.67-26.44-.74-34.96-14.21Z"/>
      <path class="cls-1" d="M312.55,2269.39c-4.56-8.36-16.74-11.06-30.2-7.56-39.49,10.3-72.64,53.25-72.44,93.95,0,1.86-.04,3.72.01,5.57.81,32.33,20.85,44.47,50.04,30.13,10.35-5.09,19.65-11.88,28.81-18.87,2.96-2.25,6.36-3.71,3.24-8.46-3.19-4.87-6.04-3.63-9.96-.93-8.23,5.67-16.62,11.13-26.35,14.12-5.21,1.6-10.77,2.74-14.82-1.15-9.76-9.36-8.05-21.54-6.74-33.39,1.03-9.36,8.38-9.92,15.45-11.26,22.83-4.31,43.35-12.99,57.79-32.3,6.72-8.98,11.21-18.8,5.17-29.85ZM291,2289.11c-6.49,19.11-26.55,32.26-51.49,33.01,5.97-21.12,16.72-37.91,36.94-47.17,4.48-2.05,10.36-4.29,14.51.42,3.52,4.01,1.62,9.09.04,13.74Z"/>
      <path class="cls-1" d="M427.61,2362.67c-2.23,1.3-4.14,3.15-6.35,4.49-3.03,1.84-6.2,5.28-9.84,3.12-4.03-2.4-1.78-6.57-1.08-10.16,5.76-29.58,16.23-57.67,27.17-85.6,1.84-4.71,5.6-9.84-3.37-11.48-27.04-4.91-52.32-1.81-74.96,15.27-29.22,22.04-44.93,50.91-43.96,87.76.31,11.57,3.13,23.71,15.12,29.09,11.4,5.11,21.54-.45,30.84-7.25,9.59-7,17.02-16.23,26.73-26.32,1.33,8.97-2.72,14.84-3.61,21.28-.59,4.29-2.27,9.37,1.94,12.51,3.96,2.95,8.51,1.19,12.66-.73,13.33-6.15,24.27-15.6,34.98-25.37,2.29-2.09,5.82-4.1,2.66-8.2-4.03-5.22-6.21.02-8.93,1.59ZM368.49,2367.4c-1.91,1.74-3.89,3.48-6.06,4.89-4.88,3.19-9.68,7.68-16.13,4.73-6.35-2.9-6.83-9.17-7.29-15.16-.17-2.22-.03-4.46-.03-6.68,1.54-24.75,9.14-47.29,25.95-65.94,10.93-12.13,24.39-17.74,41.05-13.49,3.79.97,6.24,1.82,5.05,6.44-8.1,31.45-17.39,62.29-42.54,85.21Z"/>
      <path class="cls-1" d="M466.57,53.93c.04-17.06-4.79-30.35-14.8-40.68-16.28-16.83-35.77-16.43-51.12,1.03-17.49,19.89-18.26,60.46-1.54,81.01,17.82,21.92,43.2,20.13,57.55-4.24,6.7-11.39,10.17-23.8,9.91-37.12ZM441.2,50.68c-.15,11.49-.64,22.98-1.21,34.45-.61,12.45-5.65,19.74-13.93,19.33-11.4-.57-11.6-10.5-12.47-18.04-1.19-10.23-.3-20.71-.3-31.08-.96-12.95-1.86-25.99,2.01-38.61,1.69-5.52,4.42-10.82,11.06-10.77,6.47.05,9.52,4.96,11.3,10.6,3.5,11.12,3.69,22.63,3.54,34.12Z"/>
      <path class="cls-1" d="M507.3,2362.27c3.28,3.91-1.02,5.3-2.68,6.93-9.84,9.68-20.82,17.93-33.12,24.24-3.59,1.83-7.38,3.59-10.03,3.36-10.25-.22-11.44-6.22-10.02-12.41,2.74-11.89,6.14-23.67,9.86-35.3,13.21-41.29,25.81-82.74,36.93-124.64,3.43-12.94,2.75-13.47-10.26-12-2.87.33-7.04,3.08-8.1-2.29-.76-3.82,1.77-6.38,5.16-7.61,13.92-5.05,28.05-9.42,41.87-14.84,8.34-3.27,5.57,3.54,4.32,7.53-12.97,41.34-26.08,82.64-38.97,124.01-4.62,14.84-8.79,29.83-13.04,44.78-.66,2.34-2.42,5.36.34,7.14,2.4,1.54,5.15-.46,7.26-1.66,3.84-2.19,7.36-4.98,10.89-7.68,3.4-2.59,6.52-3.22,9.59.44Z"/>
      <path class="cls-1" d="M556.09,2365.17c-.64,2.16-2.15,5.54.85,6.9,1.56.7,4.42-.32,6.19-1.4,4.42-2.69,8.65-5.72,12.76-8.88,3.25-2.52,6.15-2.6,8.56.73,2.76,3.82-1.38,5.21-3.17,6.96-9.31,9.11-19.49,17.1-30.91,23.51-6.2,3.48-13.2,6.07-18.83,1.79-5.5-4.18-3.4-11.92-1.58-17.63,6.09-19.05,13.05-37.81,19.52-56.74,3.57-10.47,6.82-21.04,10.58-32.69-8.31-.65-11.65,4.03-15.66,7.78-2.44,2.29-4.82,7.19-8.92,3.68-4.74-4.07.06-7.47,2.49-10.21,9.98-11.21,21.77-20.2,35.45-26.42,10.34-4.7,13.55-2.1,11.81,9.43-2.94,19.58-11.26,37.53-17.47,56.13-4.1,12.28-7.99,24.65-11.67,37.06Z"/>
      <path class="cls-1" d="M592.68,2200.56c7.53.52,11.29,5.28,10.77,13.64-.72,11.66-7.17,19.75-15.54,19.48-7.78-.24-12.92-7.13-12.29-16.47.68-9.96,8.16-17.26,17.06-16.65Z"/>
      <path class="cls-1" d="M620.03,1732.5c-16.63-30.29-43.2-49.31-73.89-63.31-25.04-11.42-51.49-17.88-78.93-23.73,4.26-1.09,8.48-2.34,12.78-3.26,23.32-4.98,45.71-12.46,66.64-24.09,55.61-30.91,77.25-75.3,67.89-138.22-4.82-32.38-21.74-56.23-49.27-73-26.85-16.37-56.73-24.13-87.5-27.08-77.08-7.4-154.41-3.71-231.65-3.21-2.8.02-5.65-.59-6.81,3.7-4.04,14.93.55,21.29,15.91,21.3,4.45,0,9.01.57,13.35-.12,9.97-1.59,12.13,2.31,12.11,12.03-.33,160.89-.23,321.79-.23,482.68q0,25.05-25.57,25.05c-15.82,0-15.55,0-15.68,16.04-.05,6.28.81,9.07,8.28,9.03,67.62-.43,135.25.2,202.86-.78,33.88-.5,67.22-6.27,98.84-19.41,76.73-31.89,109.94-122.41,70.87-193.62ZM409.37,1401.3c11.45.75,22.97-.07,34.35,2.46,19.72,4.39,33.97,15.73,40.1,34.75,16.66,51.68,16.53,103.88-.4,155.34-12.29,37.34-47.55,45.42-79.06,44.11-7.36-.3-6.57-5.31-6.56-10.22.04-36.4.02-72.81.02-109.21-.01-35.3.37-70.59-.25-105.87-.17-9.6,2.79-11.95,11.8-11.36ZM498.11,1864.14c-8.18,32.36-29.55,49.39-61.31,54.75-9.46,1.59-19.23,1.24-28.78,2.45-8.52,1.09-10.44-2.12-10.4-10.37.34-66.82.19-133.64.19-200.46,0-13.74.31-27.49-.13-41.21-.2-6.43.97-9.75,8.36-8.9,10.67,1.23,21.56.99,32.11,2.82,27.52,4.78,46.01,20.52,55.31,47.18,9.67,27.72,11.69,56.48,12.81,85.43-.69,23.02-2.47,45.81-8.16,68.31Z"/>
      <path class="cls-1" d="M550.04,5.82c11.29-4.3,21-3.02,30.55-2.52,3.15.16,3.56,4.35,4.85,6.89,8.02,15.85,15.95,31.75,26,47.64,0-15.84.04-31.67-.02-47.51-.01-5.16-6.33-.91-7.52-5.75,6.89-3.92,14.08-.66,21.93-.68-9.81,2.91-7.92,10.16-7.92,16.62.02,25.99.13,51.98-.13,77.97-.04,3.59,2.79,9.21-2.34,10.63-5.33,1.48-6.94-3.81-8.93-7.94-11.75-24.33-23.7-48.56-35.69-72.77-.83-1.67-.86-4.66-4.71-3.89,0,24.03.52,48.17-.28,72.25-.27,8.19,7.1,5.21,11.12,9.78-9.35,2.02-17.07,1.46-25.87.01,11.67-3.44,8.71-12.36,8.74-20,.09-22.65.1-45.3-.01-67.95-.03-5.78,3.05-13.72-9.77-12.78Z"/>
      <path class="cls-1" d="M650.73,2335.81c-12.16,11.71-24.45,23.29-36.69,34.93,15.79-6.9,30.76-3.2,45.95.76,17.41,4.53,20.38,3.09,30.37-11.73,1.83-2.73,2.75-6.12,7.42-3.71,4.8,2.48,2.34,5.37,1.17,8.32-2.87,7.29-6.98,13.87-11.47,20.25-5.39,7.66-12.71,11.35-21.98,10.26-7.33-.86-14.73-1.88-21.84-3.79-16.17-4.33-32.08-6.02-47.68,1.85-3.29,1.66-6.07,2.16-8.84-1.16-3.23-3.86.03-6.11,1.82-8.53,19.31-26.08,42.82-48.24,66.15-70.55,8.47-8.11,17-16.15,27.91-26.5-13.29,4.62-23.73,5.3-33.38.64-11.63-5.6-18.96-1.83-24.69,8.54-1.75,3.18-2.72,8.62-8.62,5.36-5.93-3.28-1.5-7.27-.03-10.3,2.88-5.97,6.44-11.66,10.2-17.13,5.87-8.54,13.96-11.82,24.2-9,6.42,1.76,12.94,3.21,19.27,5.22,10.48,3.34,20.38,1.83,30.32-2.26,3.53-1.45,7.58-7.06,11.4-1.03,3.12,4.95-1.9,8.08-4.44,11.25-16.99,21.21-37.01,39.52-56.52,58.31Z"/>
      <path class="cls-1" d="M714.08,20.59c1.73-13.11,15.2-21.59,29.05-19.36,5.79.93,11,7.14,17.62,1.83,1.3-1.05,2.5.88,2.79,2.39.43,2.18,1.07,4.4,1.01,6.58-.18,6.14,1.77,15.78-2.85,17.3-5.28,1.73-4.15-8.43-7.69-12.32-2.48-2.72-4.31-6.22-7.2-8.32-6.55-4.76-13.48-4.29-19.17,1.46-5.54,5.6-3.08,11.95.6,17.24,4.97,7.17,13.17,10.7,19.96,15.82,15.78,11.91,22.25,29.09,17.31,45.83-5.03,17.05-19.83,24.39-36.56,18.54-3.39-1.18-6.83-6.97-11.28-.54-1.35,1.95-3.97.11-3.98-2.8-.01-9.09,0-18.18,0-27.94,5.77,1.34,4.58,4.08,4.88,6.03.81,5.24,2.54,10.1,5.8,14.27,6.25,7.98,17.78,10.17,24.76,4.85,6.87-5.26,7.53-17.28.18-24.85-5.89-6.06-12.82-11.32-19.94-15.95-15.04-9.77-17.4-24.17-15.29-40.06Z"/>
      <path class="cls-1" d="M828.68,2285.02c2.12-5.1,4.12-10.28,5.65-15.58.82-2.84.82-6.27-3.72-6.3-12.52-.08-24.71-4.37-37.56-1.43-35.55,8.12-60.18,29.03-74.54,62.19-7.34,16.94-11.22,34.56-6.53,53.04,4.59,18.04,19.3,24.8,35.96,16.68,8.49-4.14,15.14-10.59,21.5-17.38,4.21-4.48,8.37-9.02,12.55-13.53.64.33,1.29.66,1.93.99-1.37,6.69-2.71,13.39-4.12,20.08-.87,4.18-1.03,8.74,2.24,11.46,3.76,3.13,8.45,1.65,12.54-.51,12.2-6.43,23.02-14.85,33.32-23.91,2.8-2.46,8.77-5.1,3.6-10.27-4.7-4.7-6.52,2.09-9.78,3.29-1.33.5-2.32,1.86-3.61,2.57-3.44,1.9-6.81,6.15-10.87,3.8-4.91-2.83-2.35-8.27-1.41-12.21,5.89-24.85,13.04-49.33,22.85-72.98ZM779.44,2350.19c-6.26,8.9-13.7,16.61-22.74,22.69-13.15,8.87-20.61,5.38-22.25-10.34-.23-2.2-.03-4.45-.03-6.68,1.45-23.47,8.1-45.25,23.16-63.67,11.33-13.87,25.53-21.31,44.15-16.18,3.52.96,6.45,1.33,4.81,6.38-7.53,23.21-12.71,47.33-27.1,67.8Z"/>
      <path class="cls-1" d="M874.81,1785.43c.65-30.69-2.7-60.36-17.85-87.51-4.51-8.08-9.24-16.12-14.66-23.6-40.66-56.24-107.82-57.86-151.68-3.83-46.95,57.83-49.59,160.09-5.69,220.31,46.82,64.2,117.89,62.91,162.34-3.21,20.78-30.9,29.49-65.3,27.54-102.16ZM801.16,1885.43c-1.37,6.92-3.53,13.57-6.68,19.92-6.13,12.35-15.04,19.41-29.8,18.85-14.59-.55-24.57-6.62-30.53-19.88-5.24-11.69-7.92-24.13-8.33-36.65-1.95-58.94-4.43-117.93,1.74-176.79.8-7.66,2.61-15.39,5.17-22.66,5.74-16.36,15.51-22.74,32.61-23.43,15.92-.64,24.54,8.7,30.34,21.66,7.09,15.86,8.69,32.88,8.86,50,.25,24.49.06,48.99.06,78.71-1.36,26.6,2.85,58.62-3.44,90.27Z"/>
      <path class="cls-1" d="M852.19,28.27c-.16-1.83.25-3.7.39-5.55q1.46-19.92,22.15-19.92c13.76,0,27.52.32,41.25-.16,6.46-.22,8.27,1.97,7.9,8.15-.49,8.38-.12,16.82-.12,25.31-6.34.06-4.76-4.73-5.69-7.29-1.77-4.85-2.6-10.04-5.53-14.45-2.41-3.64-6.41-6.63-10.08-5.89-4.86.98-2.13,6.25-2.16,9.47-.25,24.16-.14,48.33-.14,72.49q.01,11.76,10.47,15.9h-44.53c14.18-1.18,10.63-11.63,10.65-19.98.05-25.98.02-51.96.02-79.17-12.88,3.28-16.28,11.81-17.81,21.82-.48,3.14-.02,7.85-4.81,6.94-3.64-.69-1.71-4.97-1.96-7.67Z"/>
      <path class="cls-1" d="M979.97,2362.21c4.03,5.39-5.45,9.78-9.81,13.71-9.09,8.18-18.24,16.56-30.5,19.86-13.17,3.55-17.44-.58-14.69-14.01,4.34-21.17,13.39-40.82,19.94-61.27,3.29-10.24,6.55-20.45,8.2-31.14,1.06-6.83-2.26-8.08-7.43-6.13-4.08,1.54-7.89,4.05-11.47,6.61-31.88,22.69-48.46,55.33-59.36,91.63-3.3,10.98-13.37,16.58-24.12,13.33-5.72-1.73-2.02-5.34-1.2-7.95,7.34-23.32,15.1-46.51,22.2-69.91,2.85-9.37,6.8-18.77,4.96-29.65-7.31,1.85-10.87,8.3-16.72,11.21-1.83.91-3.54,3.08-5.89.87-2.34-2.22-2.18-4.58-.34-6.92,11.56-14.69,26.19-25.65,43.93-30.95,8.69-2.6,8.63,6.6,7.72,11.84-1.39,7.95-4.51,15.62-7.16,23.33-2.38,6.93-5.1,13.74-7.68,20.6.53.4,1.06.8,1.58,1.2,8.01-9.19,15.81-18.57,24.08-27.52,11.44-12.37,24.12-23.17,40.5-28.58,6.8-2.25,14.13-4.42,19.92,1.36,5.38,5.38,3.64,12.67,1.74,19.02-7.74,25.9-15.87,51.69-23.83,77.53-1.08,3.49-3.86,8.13-.91,10.39,3.34,2.55,7.59-.88,10.82-3.16,4.91-3.47,10.64-11.83,15.52-5.3Z"/>
      <path class="cls-1" d="M976.63,1911.4c-9.31-35.11-18.33-70.29-27.26-105.5-5.62-22.14-10.91-44.36-16.34-66.55-.78.03-1.55.06-2.32.09-9,34.37-17.98,68.75-27,103.11-6.12,23.3-11.94,46.68-18.67,69.8-2.22,7.64-.07,9.42,6.86,9.03,4.08-.23,8.18.07,12.26-.16,4.24-.25,6,1.3,5.85,5.73-.13,3.78-.52,6.56-5.25,6.54-17.09-.07-34.18-.1-51.28.03-4.78.03-5.2-2.72-5.32-6.46-.13-4.22,1.47-6.69,5.75-5.74,13.34,2.93,16.18-4.93,18.98-15.78,22.6-87.56,45.79-174.97,68.71-262.45,1.6-6.13,1.96-11.52,11.19-11.48,8.58.04,11.25,3.3,13.18,10.74,23.03,88.6,46.32,177.14,69.52,265.7,2.04,7.78,3.72,15.67,14.87,13.34,4.91-1.03,5.22,2.14,5.22,5.93s-.45,6.26-5.29,6.24c-28.62-.16-57.23-.17-85.84,0-5.3.04-5.9-2.59-6.01-6.88-.12-4.62,2.01-5.82,6.04-5.46,1.47.14,3.01-.19,4.45.06,8.75,1.46,9.7-2.33,7.7-9.88Z"/>
      <path class="cls-1" d="M1079.26,88.52c-.03-14.69-3.97-27.16-19.08-33.29-1.24-.5-3.83-.49-3.31-3.42,5.51-2.17,11.51-2.74,16.54-6.14,13.86-9.34,14.68-29.71.53-37.03-20.25-10.48-41.93-5.24-64.55-3.94,10.6,1.45,8.38,8.44,8.4,14.07.07,24.12.03,48.24.01,72.37,0,6.11,1.87,13.14-7.01,15.93h36.51c-6.84-2.63-7.81-7.05-7.52-13.2.47-10-.04-20.05.23-30.07.08-2.95-2.06-7.61,1.9-8.6,4.01-1,7.81,1.92,10.15,5.53,2.7,4.16,3.3,8.93,3.33,13.84.04,6.67,0,13.32,1.84,19.88,4.1,14.65,16.37,19.33,30.35,10.41-8.32-2.91-8.31-9.57-8.32-16.34ZM1053.28,46.08c-3.73,2.47-8.03,2.74-11.73,1.27-3.22-1.27-1.42-5.26-1.6-8.03-.26-4.06-.06-8.16-.06-12.24,0-3.35-.02-6.69.01-10.03.08-10.1,3.55-12.11,12.37-7.18,10.34,5.79,10.99,29.61,1.01,36.21Z"/>
      <path class="cls-1" d="M1090.46,216.46c-.24,184.4-.18,368.79-.18,553.18s-.09,368.04.25,552.06c.02,10.44-2.92,12.72-12.94,12.7-123.05-.35-246.1-.39-369.14.04-11.55.04-14.12-3.32-14.09-14.45.85-321.11,1.38-642.22,1.67-963.33.01-8.29,2.9-11.35,10.15-13.94,124.58-44.45,249.11-89.08,373.51-134.01,9.25-3.34,10.78-1.54,10.77,7.75Z"/>
      <path class="cls-1" d="M1094.72,2346.42c13.94-49.58,30.02-98.46,47.31-146.96,1.25-3.52,5.15-7.76,1.19-11.22-3.49-3.05-7.87-.38-11.46,1.35-10.09,4.84-20.69,8.09-31.39,11.16-4.17,1.19-10.02,2.29-9.02,7.92.97,5.51,6.78,2.73,10.13,2.57,7.91-.37,11.02,1.61,8.22,10-3.73,11.22-7.24,22.56-9.96,34.06-1.52,6.43-3.68,8.91-10.4,6.52-7.58-2.7-15.42-2.01-23.01.35-36.5,11.32-57.9,37.22-68.78,72.65-4.56,14.85-4.38,30.13.79,44.94,5.93,16.97,19.77,21.96,35.57,13.19,6.22-3.45,11.57-8.04,16.41-13.22,6.05-6.46,12.08-12.94,18.12-19.41.84.43,1.67.86,2.51,1.29-1.69,7.16-3.23,14.36-5.13,21.46-1.19,4.49-2.35,9.56,1.42,12.47,3.53,2.72,8.48,1.42,12.76-.42,10.75-4.64,19.58-12.13,28-19.89,4.04-3.71,14.06-6.55,9.59-13.26-5.61-8.41-9.91,2.46-14.87,4.45-3.41,1.36-6.81,4.75-10.23,2.96-4.13-2.17-1.28-6.64-.83-9.98.58-4.39,1.86-8.7,3.06-12.98ZM1090.67,2288.07c-7.47,29.44-17.41,57.54-41.17,78.36-6.28,5.5-12.47,14.18-21.63,10.48-9.81-3.95-7.77-14.8-8.54-24.03,1.2-21.76,6.73-42.68,19.84-61,11.58-16.19,29.25-20.75,46.19-12.91,4.19,1.94,6.63,3.88,5.31,9.1Z"/>
      <path class="cls-1" d="M1165.29,645.96c-.01,225.05-.04,450.1.1,675.16,0,7.62-.27,11.78-10.22,11.79-10.05.02-10.24-4.31-10.23-11.89.14-181.4.11-362.8.11-544.19s-.03-361.31.19-541.96c.01-4.24-3.86-11.41,3.37-12.71,9.06-1.64,16.71,6.02,16.71,14.91,0,136.3-.03,272.59-.03,408.89Z"/>
      <path class="cls-1" d="M1168.83,6.48c1.09-1.02,2.18-2.04,3.27-3.06h34.98c-9.38,3.63-6.84,11.39-6.87,18.03-.07,18.2-.13,36.39.05,54.58.05,5.16.57,10.37,1.53,15.43,1.15,6,3.15,11.9,10.96,11.71,7.53-.19,13.88-2.63,16.56-10.56,1.69-4.97,2.23-10.11,2.22-15.35-.05-19.31.03-38.62-.04-57.93-.02-6.02,2.32-13.44-9.8-13.65,6.72-3.78,11.82-2.67,16.67-2.8,2.27-.05,5.88-1.39,6.38,2.11.48,3.31-3.26,1.74-4.88,2.74-3.64,2.24-1.75,6.03-1.86,9.07-.77,22.22,1.66,44.55-1.67,66.68-3.78,25.15-20.29,34.05-43.41,24.05-7.52-3.25-11.51-8.47-12.88-16.6-4.11-24.37-1.94-48.87-2.1-73.33-.04-5.01,2.92-11.71-9.11-11.12Z"/>
      <path class="cls-1" d="M1245.24,2285.25c-6.94-19.88-21.84-27.47-42.9-23.12-17.37,3.6-29.53,15.02-41.89,26.08-22.56,20.19-32.35,59.09-22.25,85.8,5.9,15.61,15.62,22.82,30.53,22.66,50.67-.53,93.48-62.87,76.51-111.42ZM1224.96,2308.88c-.04,18.91-4.33,36.76-13.66,53.27-4.07,7.21-9.26,13.48-16.73,17.48-14.45,7.74-29.77,1.72-34.77-13.88-3.62-11.32-2.38-22.71.14-34.1,3.58-16.15,9.69-31.16,19.97-44.21,9.63-12.24,18.84-15.62,30.88-11.57,12.83,4.32,13.48,15.38,14.15,26.32.14,2.22.02,4.46.02,6.69Z"/>
      <path class="cls-1" d="M1226.69,1322.32c.23-354.17.19-708.33.19-1062.5v-8.69q20.24,3.81,20.24,22.06c0,349.34-.02,698.67.13,1048,0,7.71-.38,12.03-10.27,11.65-8.3-.31-10.3-2.22-10.29-10.52Z"/>
      <path class="cls-1" d="M1089.26,1920.67c-33.71-124.88-67.23-249.8-100.79-374.72-12.02-44.74-24.09-89.46-35.8-134.28-2.01-7.71-5.27-11.76-13.64-10-1.78.37-3.7.13-5.56.15-17.83.18-18.61-.91-17.46-19.07.31-4.87,1.78-6.2,6.52-6.19,58.66.1,117.31.04,175.97-.06,4-.01,5.62,1.06,6.07,5.56,1.83,18.3.58,19.92-17.69,19.73-6.66-.07-13.33-.01-21.82-.01,30,116.04,59.75,231.11,89.49,346.18.88,0,1.75.01,2.62.01,6.48-24.28,12.85-48.6,19.45-72.86,23.54-86.52,47.71-172.87,69.23-259.93,3.36-13.57,3.31-13.58-10.26-13.58-7.43-.01-14.89.38-22.29-.14-4.89-.35-12.18,3.16-14.19-2.17-2.2-5.87-.88-13.21-.46-19.86.22-3.6,3.79-2.81,6.21-2.81,34.52-.03,69.05.12,103.57-.09,5.27-.04,6.38,2.03,6.06,6.53-.23,3.33-.37,6.73.05,10.03.88,6.78-1.53,8.63-8.52,8.62-29.48-.06-29.2.29-37.15,29.76-30.43,112.72-61.01,225.39-91.62,338.06-15.06,55.42-30.47,110.75-45.28,166.24-1.8,6.71-4.32,8.81-11.19,8.8-24.62-.03-24.98.34-31.52-23.9Z"/>
      <path class="cls-1" d="M1307.02,1325.67c-.16-7.8-.07-15.61-.07-23.41,0-165.39,0-330.78.01-496.17.01-170.59-.04-341.19.33-511.78.01-3.87-5.79-12.28,4.32-12.56,11.48-.31,15.71,4.22,15.71,14.77.02,125.25.02,250.51.02,375.76,0,215.94,0,431.88-.01,647.82,0,12.03-4.99,15.45-16.9,12.42-4.54-1.16-3.35-4.21-3.41-6.85Z"/>
      <path class="cls-1" d="M1307.89,1661.87c.45,81.18.38,162.37.15,243.55-.03,8.72.65,14.52,11.64,12.67,5.69-.96,10.68,1.04,10.56,8.09-.12,7.57-6.12,6.04-10.67,6.07-14.49.13-28.97.05-43.45.05s-28.96-.06-43.45.04c-4.36.03-7.92.25-7.78-6.1.1-5.02,1.43-7.05,6.56-7.93,5.02-.86,12.34,2.01,14.53-2.07,2.5-4.68,1.12-11.52,1.13-17.43.04-79.09-.15-158.19.24-237.29.05-9.94-2.9-13.43-12.64-12.41-3.94.41-9.91,3.05-9.85-5.77.05-8.09,4.67-7.76,10.19-7.75,28.58.07,57.17.04,85.76.01,4.9,0,9.61-.74,9.54,6.97-.07,7.64-4.75,7.55-9.61,6.81-10.17-1.56-12.9,2.27-12.85,12.49Z"/>
      <path class="cls-1" d="M1368.35,2036.97c.26,9.2-3.36,9.89-10.91,9.89-183.94-.19-367.87-.21-551.81.05-8.8.02-10.92-2.31-11.16-11.01-.26-9.42,3.77-9.79,11.11-9.77,91.78.19,183.56.13,275.35.13s184.3.13,276.46-.22c8.84-.03,10.72,2.4,10.96,10.93Z"/>
      <path class="cls-1" d="M1329.27,29.04q-1.15-26.24,25-26.24c13.01,0,26.02.33,39.01-.15,6.52-.25,8.21,2.1,7.87,8.21-.47,8.57-.12,17.17-.12,28.39-6.37-5.72-5.45-10.91-7.09-15.05-1.77-4.47-3.12-9.21-6.73-12.66-2.19-2.09-5.13-4-7.94-3.27-4,1.03-1.96,4.96-1.98,7.56-.13,24.87-.15,49.75-.02,74.62.04,6.9-3.58,16.67,11.67,14.64-16.27,4.28-30.91,2.8-45.43,2.72-.55-4.92,2.13-4.71,4.19-4.45,6,.74,6.43-2.66,6.4-7.37-.14-27.12-.02-54.25-.16-81.37-.01-2.22,1.77-5.89-1.87-6.47-2.19-.34-5.09,1.07-7.05,2.53-6.14,4.57-7.31,11.7-8.94,18.59-.63,2.66-.2,7.06-3.99,6.92-4.24-.17-2.71-4.6-2.82-7.15Z"/>
      <path class="cls-1" d="M1410.92,2292.46c-1.18,2.06-2.37,3.66-5.01,3.67-4.58.01-3.71-3.84-4.55-6.37-5.23-15.78-18.89-21.85-31.89-14.08-8.93,5.34-10.95,12.76-5.56,21.66,5.06,8.35,12.59,14.58,19.23,21.57,12.97,13.66,26.85,27.62,17.73,48.69-9.38,21.68-27.77,29.7-50.59,29.32-4.44-.28-9.01.01-13.3-.93-21.06-4.6-25.31-17.11-11.52-33.57,4.2-5.01,6.11-2.62,7.99,2.36,5.1,13.5,18.19,20.62,31.75,17.75,14.21-3.01,20-14.4,13.92-27.71-5.18-11.36-13.85-20.16-22.38-28.91-10.47-10.74-19.96-21.8-14-38.19,6.19-17.01,20.64-23.52,36.92-26.64,5.36-1.03,11.2-.87,16.62-.03,20.96,3.25,25.3,12.91,14.64,31.41Z"/>
      <path class="cls-1" d="M1391.68,1322.16c.21-334.47.18-668.94.18-1003.4v-9.57c3.9,1.03,6.98,2.13,10.15,2.62,8.06,1.24,10.27,5.56,10.22,13.72-.4,56.86-.23,113.73-.23,170.6.01,275.04-.01,550.08.13,825.13,0,7.7-.52,11.89-10.33,11.6-8.61-.24-10.13-2.66-10.12-10.7Z"/>
      <path class="cls-1" d="M1347.74,1921.73c-.41-11.51-.16-23.04-.16-34.56s-.2-23.79.13-35.68c.1-3.24-2.89-8.64,4.63-8.72,6.43-.07,8.01,2.94,8.45,8.76.93,12.3,4.43,24.15,9.65,35.23,8.84,18.73,22.99,32.07,43.58,36.62,18.64,4.12,36.65-4.17,46.05-19.72,10.28-17,8.84-39.71-3.94-55.24-9.51-11.55-21.26-20.71-33.26-29.52-16.15-11.86-33.31-22.52-47.07-37.32-27.45-29.52-35.39-63.94-22.41-101.99,14.64-42.89,55.78-59.82,96.95-41.13,4.04,1.84,8.25,3.65,11.72,6.32,6.06,4.68,10.47,4.57,12.96-3.2,2.13-6.62,7.27-6.78,12.41-5.78,5.67,1.1,2.79,6.09,2.83,9.19.28,20.07.27,40.14.01,60.21-.04,3.22,2.94,8.71-4.56,8.77-5.46.04-7.81-2.07-8.91-7.48-4.01-19.72-12.29-37.33-27.78-50.79-18.64-16.21-42.5-17.26-58.86-2.86-14.32,12.62-16.91,28.77-6.6,44.83,10.67,16.64,26.51,27.83,42.37,38.93,14.88,10.42,30.6,19.68,43.22,33.13,35.21,37.49,38.48,101.06,8.93,141.97-21.33,29.53-65.45,30.36-87.44,18.22-3.57-1.97-7.31-3.75-10.55-6.19-6.74-5.07-11.9-5.96-16.1,3.18-2.47,5.37-8.24,6.67-13.51,5.22-5.6-1.55-2.62-6.89-2.74-10.4Z"/>
      <path class="cls-1" d="M1493.41,356.93c-.04,119.11-.13,238.22-.13,357.32.01,201.85.08,403.7.14,605.55,0,6.92,1.68,13.57-10.04,13.11-9.36-.36-10.6-3.45-10.59-11.56.21-161.69.16-323.39.16-485.08s-.06-320.41.25-480.61c.01-5.01-5.02-13.99,4.01-15.09,10.57-1.29,16.21,5.75,16.2,16.36Z"/>
      <path class="cls-1" d="M1537.1,2298.99c-3.36-31.54-28.47-46.46-57.51-34.15-32.72,13.86-56.54,49.62-56.52,84.86.02,38.28,19.64,55.06,52.07,44.51,38.61-12.56,66.24-55.01,61.96-95.22ZM1496.64,2366.76c-4.03,6.33-8.98,11.71-16.32,14.47-15.68,5.89-27.91.48-31.49-15.83-6.96-31.75,2.85-59.24,24.15-82.91,6.93-7.7,16.23-10.68,26.34-7.21,10.38,3.56,12.23,12.98,13.38,22.38.49,4.04.47,8.14.6,10.77-.67,21.86-5.63,41-16.66,58.33Z"/>
      <path class="cls-1" d="M1553.11,14.5c-12.79-16.18-32.04-18.31-47.83-4.95-13.8,11.67-18.93,27.01-17.65,45.37-1.58,15.71,2.95,30.23,13.74,42.59,15.06,17.24,34.47,17.33,49.9.43,19.49-21.34,20.34-60.03,1.84-83.44ZM1537.73,93.51c-1.17,5.73-3.67,11.1-10.5,10.98-6.78-.13-10.41-4.95-12.34-11.03-4.12-12.98-2.87-26.35-2.9-39.63,1.33-11.74-1.18-23.73,2.62-35.28,2-6.07,4.22-12.89,11.73-12.91,7.63-.01,10.21,6.86,11.4,13.05,4.82,24.9,5.07,49.9-.01,74.82Z"/>
      <path class="cls-1" d="M1666.36,2006.11c-407.75,0-815.5,0-1223.25-.03-6.23,0-13.11,2.4-12.66-9.15.35-9.19,2.4-11.47,11.67-11.46,204.43.3,408.87.23,613.3.23h611.07c11.98,0,15.84,5.46,12.4,16.99-.82,2.75-2.23,3.49-4.72,3.42-2.6-.07-5.2,0-7.81,0Z"/>
      <path class="cls-1" d="M1681.35,2361.37c2.05,2.73.83,5.08-1.13,6.9-11.47,10.56-22.99,21.36-37.64,27.22-13,5.2-18.61.41-15.99-13.23,4.36-22.64,13.48-43.84,20.83-65.57,2.73-8.07,5.33-16.2,7.51-24.43.79-3,1.69-6.9-1.93-9.08-2.85-1.71-5.68-.29-8.42,1.03-7.45,3.61-13.62,8.91-19.64,14.47-22.59,20.89-38.33,45.77-46.36,75.76-5.4,20.15-6.16,19.95-28.43,20.02-.89-5.63,2.03-10.54,3.53-15.55,7.93-26.6,16.21-53.11,24.31-79.66,1.08-3.51,3.19-8.21-.02-10.45-4.31-2.99-6.74,2.76-10.1,4.51-4.11,2.15-7.99,10-12.35,5.12-4.97-5.57,2.91-9.15,6.34-12.98,8.83-9.88,19.89-16.74,31.85-21.91,10.49-4.54,14.77-.91,12.75,10.5-2.69,15.21-10.13,28.96-14.92,44.51,5.15-1.28,6.74-5.29,9.15-8.15,13.4-15.94,26.59-32.16,45.12-42.53,9.3-5.19,20-12.46,29.95-4.65,9.73,7.63,4.56,19.43,1.6,29.05-7.07,23-16.1,45.4-21.74,68.84-.75,3.14-4.23,7.68-.05,10,3.21,1.78,6.95-1.35,9.99-3.47,3.03-2.12,5.81-4.64,8.96-6.57,2.1-1.29,4.65-2.6,6.83.3Z"/>
      <path class="cls-1" d="M1637.6,1658.12c.41,41.98.19,83.97.19,125.95-.01,41.25.26,82.5-.23,123.73-.1,8.59,2.31,11.11,10.6,10.1,5.06-.62,10.32.77,15.5.81,6.5.05,5.21,4.55,5.48,8.5.34,5-2.72,5.12-6.37,5.12-36.78-.05-73.57-.07-110.35.02-4.16,0-7.31-.23-7.07-5.73.2-4.36.21-8.48,5.92-8.76,4.44-.23,9-.69,13.34-.02,9.54,1.5,12.59-1.31,12.53-11.66-.5-77.65-.27-155.31-.27-232.97,0-5.57-.39-11.18.1-16.71.56-6.42-2.32-7.44-7.9-6.85-13.95,1.48-24.57,7.89-31.33,20.24-8.22,15.04-15.15,30.54-16.66,47.94-.26,2.93-.78,5.97-1.91,8.66-1.91,4.53-6.35,5-10.41,4.57-4.68-.49-2.61-4.63-2.55-7.06.61-25.99,1.56-51.97,2.15-77.95.17-7.47,1.93-10.78,10.83-10.7,58.69.51,117.39.39,176.08.1,7.22-.03,10.82,1.28,10.92,9.28.33,26.36,1.15,52.72,1.7,79.08.08,3.93-.61,7.26-5.85,7.69-6.11.49-5.99-3.31-6.74-7.61-3.25-18.74-8.86-36.76-18.19-53.44-6.53-11.69-16.33-18.89-29.86-20.82-6.86-.98-9.73.52-9.65,8.49Z"/>
      <path class="cls-1" d="M1722.46,92.53c1.6-18.83-4.56-33.39-27.43-39.81,10.74-3.22,18.48-4.38,24.47-9.78,12.41-11.2,10.37-29.17-5-35.41-20.03-8.14-40.96-4.86-63.44-2.57,11.94.55,8.72,8.14,8.75,13.76.12,24.13.08,48.26.03,72.4-.01,6.06,2.1,13.2-6.97,15.83h36.11c-4.99-3.69-5.73-8.03-5.48-13.4.44-9.64-.12-19.31.26-28.95.12-3.21-2.67-8.5,2.48-9.33,3.96-.63,7.41,2.95,9.31,6.85,3.84,7.92,3.35,16.64,4.12,25.07,1.85,20.26,11.28,26.38,32.82,18.94-5.92-4.02-10.61-6.8-10.03-13.6ZM1687.2,47.83c-6.44-1.1-2.9-6.45-3.45-9.88-.57-3.59-.13-7.35-.13-11.04,0-2.94-.4-5.97.11-8.82.63-3.53-2.77-9.15,2.86-10.19,5.58-1.03,11.27,1.22,13.65,7.11,3.41,8.43,3.24,17.37.47,25.85-1.97,6.01-7.48,7.99-13.51,6.97Z"/>
      <path class="cls-1" d="M1823.79,2362.02c5.03,6.59-4.55,11.08-9,15.17-8.48,7.8-18.24,13.93-29.38,17.55-13.8,4.48-17.23,1.63-14.86-12.39,3.43-20.24,11.18-39.14,17.95-58.35,3.57-10.13,8-20.02,9.58-30.73.5-3.44,2.31-8.14-1.35-10.25-3.13-1.8-7.41-.18-10.55,1.91-12.43,8.24-23.67,17.84-33.23,29.36-15.23,18.37-23.38,40.21-31.02,62.35-6.47,18.75-6.61,18.7-28.47,17.21,13.69-46.25,27.32-92.36,40.98-138.47,2.84-9.58,5.81-19.14,8.68-28.71,4.22-14.03,3.35-15.18-11.32-15.27-1.84-.01-3.68,0-5.59,0-1.12-6.52,1.43-8.99,7.73-9.93,11.46-1.72,21.65-7.4,32.22-11.87,3.1-1.32,6.79-4.68,10.28-1.42,3.41,3.2.64,7.1-.46,10.41-12.44,37.47-25.03,74.89-37.61,112.41,5.01,2.37,6.86-1.61,9.26-4.11,9.01-9.37,17.73-19.05,26.99-28.16,8.01-7.9,17.42-13.84,28.41-16.89,16.62-4.62,23.8,1.55,20.83,18.33-1.23,6.9-3.21,13.7-5.32,20.41-6.22,19.78-12.65,39.5-19.04,59.23-1.25,3.85-3.83,8.62-.19,11.27,2.87,2.1,6.74-1.58,10-3.3,4.82-2.54,10.16-11.42,14.48-5.76Z"/>
      <path class="cls-1" d="M234.54,137.36c.3-4.24,1.39-6.19,5.73-5.88,2.22.17,4.46.02,6.69.02,539.71,0,1079.41,0,1619.12.02,6.33,0,13.15-2.2,12.63,9.28-.41,9.1-2.41,11.56-11.72,11.55-270.56-.27-541.11-.22-811.66-.2-269.06.01-538.12.01-807.18.01-14.59,0-14.61-.26-13.61-14.8Z"/>
      <path class="cls-1" d="M1874.27,1933.54c-27.86-.1-55.72-.19-83.57.07-5.73.05-6.64-2.41-6.79-7.27-.19-6.25,4.05-5.52,7.47-4.99,10.86,1.67,12.02-2.43,9.51-12.18-14.13-54.9-27.65-109.96-41.44-164.96-.43-1.73-1.45-3.32-2.72-6.15-15.86,59.46-31.34,117.71-47.03,175.91-1.75,6.49.61,7.8,6.37,7.34,4.43-.35,8.92.07,13.37-.11,3.94-.15,6.21.71,6.11,5.45-.1,4.34-.68,6.98-5.97,6.91-16.34-.21-32.68-.14-49.03-.03-4.38.03-6.81-.96-6.86-6.15-.06-5.1,2.11-6.96,6.59-6.07,12.8,2.54,14.97-5.44,17.57-15.42,20.11-77.44,40.75-154.74,61.21-232.08,2.75-10.39,5.46-20.78,8.04-31.21,1.54-6.25,2.79-11.03,11.69-11.03,8.41.01,10.47,3.53,12.25,10.31,21.52,82.07,43.26,164.09,64.89,246.13,1.99,7.51,3.83,15.07,5.47,22.66,1.49,6.92,4.29,11.94,12.57,10.64,5.01-.78,7.39.53,7.23,6.38-.15,5.37-2.67,5.87-6.93,5.85Z"/>
      <path class="cls-1" d="M1848.67,107.16h35.18c-5.06-4.01-6.18-9.04-7.47-14.02-7.06-27.26-14.06-54.53-21.37-81.72-.89-3.32.4-9.04-6.21-8.62-6,.38-5.04,5.57-6.04,9.08-7.2,25.3-14.25,50.64-21.22,76-1.9,6.92-2.65,14.37-13.62,18.39,10.39,2,17.21,2.04,24.28.78-1.27-6.02-10.39-.7-7.7-8.29,2.79-7.84-.09-19.28,11.17-21.97,4.97-1.19,12.88-3.31,15.49,4.35,2.83,8.34,9.85,17.45-2.49,26.02ZM1846.12,71.08c-3.04,1.38-7.63,1.59-10.66.3-4.57-1.96-1.61-6.49-.9-9.69,1.19-5.31,3.22-10.44,4.89-15.64.75-.07,1.51-.15,2.26-.22,1.71,5.45,3.73,10.82,4.98,16.37.65,2.89,3.38,7.08-.57,8.88Z"/>
      <path class="cls-1" d="M1952.15,2284.07c-6.42-18.29-22.27-26.69-40.42-22.85-37.01,7.83-69.94,48.74-69.49,86.34.07,9.3.94,18.48,4.04,27.35,5.58,15.95,13.88,21.71,30.59,21.83,25.87.2,44.15-14,59.04-32.64,18.8-23.54,26.65-50.36,16.24-80.03ZM1911.1,2372.25c-7.67,8.72-16.84,12.88-28.78,9.39-11.69-3.41-15.25-12.47-16.14-22.86-2.45-28.82,6.69-54.13,25.21-75.96,7.09-8.36,16.72-10.69,27.32-6.76,9.79,3.63,12.5,11.89,13.44,21.16.41,4.07.59,8.15.95,13.26-1.39,22.01-6.23,43.83-22,61.77Z"/>
      <path class="cls-1" d="M2056.64,2272.75c-.62,2.89-1.29,5.86-2.55,8.5-2.46,5.13-1.39,14.14-7.92,14.53-6.16.37-5.65-8.24-7.8-13.08-3.3-7.44-9.9-9.99-17.24-10.12-7.7-.15-14.82,2.05-18.68,9.67-3.47,6.86-1.62,13.11,3.29,18.41,7.31,7.9,14.93,15.5,22.4,23.25,12.43,12.91,20.23,28.35,12.2,45.38-8.51,18.03-25.44,26.2-45.36,27.4-1.85.11-3.72.02-6.6.02-9.36.8-18.62-2.06-27.48-7.57-4.86-3.02-6.05-5.93-3.15-10.7.96-1.58,1.49-3.47,2.63-4.89,3.37-4.19,2.13-12.84,7.82-13.3,6.35-.51,4.74,8.05,7.55,12.12,6.79,9.84,28.42,13.56,38.59,6.44,9.47-6.62,9.89-19.12.33-31.45-6.13-7.91-13.1-15.19-19.82-22.63-9.16-10.15-18.19-20.66-13.1-35.58,5.92-17.31,20.11-25.1,36.99-28.37,12.13-2.35,23.43,1.64,34.59,6.11,3.26,1.3,3.89,3.11,3.31,5.86Z"/>
      <path class="cls-1" d="M1090.53,1321.7c.02,10.44-2.92,12.72-12.94,12.7-123.05-.35-246.1-.39-369.14.04-11.55.04-14.12-3.32-14.09-14.45.85-321.11,1.38-642.22,1.67-963.33.01-8.29,2.9-11.35,10.15-13.94,124.58-44.45,249.11-89.08,373.51-134.01,9.25-3.34,10.78-1.54,10.77,7.75-.24,184.4-.18,368.79-.18,553.18s-.09,368.04.25,552.06Z"/>
      <path class="cls-1" d="M620.03,1732.5c-16.63-30.29-43.2-49.31-73.89-63.31-25.04-11.42-51.49-17.88-78.93-23.73,4.26-1.09,8.48-2.34,12.78-3.26,23.32-4.98,45.71-12.46,66.64-24.09,55.61-30.91,77.25-75.3,67.89-138.22-4.82-32.38-21.74-56.23-49.27-73-26.85-16.37-56.73-24.13-87.5-27.08-77.08-7.4-154.41-3.71-231.65-3.21-2.8.02-5.65-.59-6.81,3.7-4.04,14.93.55,21.29,15.91,21.3,4.45,0,9.01.57,13.35-.12,9.97-1.59,12.13,2.31,12.11,12.03-.33,160.89-.23,321.79-.23,482.68q0,25.05-25.57,25.05c-15.82,0-15.55,0-15.68,16.04-.05,6.28.81,9.07,8.28,9.03,67.62-.43,135.25.2,202.86-.78,33.88-.5,67.22-6.27,98.84-19.41,76.73-31.89,109.94-122.41,70.87-193.62ZM409.37,1401.3c11.45.75,22.97-.07,34.35,2.46,19.72,4.39,33.97,15.73,40.1,34.75,16.66,51.68,16.53,103.88-.4,155.34-12.29,37.34-47.55,45.42-79.06,44.11-7.36-.3-6.57-5.31-6.56-10.22.04-36.4.02-72.81.02-109.21-.01-35.3.37-70.59-.25-105.87-.17-9.6,2.79-11.95,11.8-11.36ZM498.11,1864.14c-8.18,32.36-29.55,49.39-61.31,54.75-9.46,1.59-19.23,1.24-28.78,2.45-8.52,1.09-10.44-2.12-10.4-10.37.34-66.82.19-133.64.19-200.46,0-13.74.31-27.49-.13-41.21-.2-6.43.97-9.75,8.36-8.9,10.67,1.23,21.56.99,32.11,2.82,27.52,4.78,46.01,20.52,55.31,47.18,9.67,27.72,11.69,56.48,12.81,85.43-.69,23.02-2.47,45.81-8.16,68.31Z"/>
      <path class="cls-1" d="M1306.02,1401.71c-29.48-.06-29.2.29-37.15,29.76-30.43,112.72-61.01,225.39-91.62,338.06-15.06,55.42-30.47,110.75-45.28,166.24-1.8,6.71-4.32,8.81-11.19,8.8-24.62-.03-24.98.34-31.52-23.9-33.71-124.88-67.23-249.8-100.79-374.72-12.02-44.74-24.09-89.46-35.8-134.28-2.01-7.71-5.27-11.76-13.64-10-1.78.37-3.7.13-5.56.15-17.83.18-18.61-.91-17.46-19.07.31-4.87,1.78-6.2,6.52-6.19,58.66.1,117.31.04,175.97-.06,4-.01,5.62,1.06,6.07,5.56,1.83,18.3.58,19.92-17.69,19.73-6.66-.07-13.33-.01-21.82-.01,30,116.04,59.75,231.11,89.49,346.18.88,0,1.75.01,2.62.01,6.48-24.28,12.85-48.6,19.45-72.86,23.54-86.52,47.71-172.87,69.23-259.93,3.36-13.57,3.31-13.58-10.26-13.58-7.43-.01-14.89.38-22.29-.14-4.89-.35-12.18,3.16-14.19-2.17-2.2-5.87-.88-13.21-.46-19.86.22-3.6,3.79-2.81,6.21-2.81,34.52-.03,69.05.12,103.57-.09,5.27-.04,6.38,2.03,6.06,6.53-.23,3.33-.37,6.73.05,10.03.88,6.78-1.53,8.63-8.52,8.62Z"/>
      <path class="cls-1" d="M874.81,1785.43c.65-30.69-2.7-60.36-17.85-87.51-4.51-8.08-9.24-16.12-14.66-23.6-40.66-56.24-107.82-57.86-151.68-3.83-46.95,57.83-49.59,160.09-5.69,220.31,46.82,64.2,117.89,62.91,162.34-3.21,20.78-30.9,29.49-65.3,27.54-102.16ZM801.16,1885.43c-1.37,6.92-3.53,13.57-6.68,19.92-6.13,12.35-15.04,19.41-29.8,18.85-14.59-.55-24.57-6.62-30.53-19.88-5.24-11.69-7.92-24.13-8.33-36.65-1.95-58.94-4.43-117.93,1.74-176.79.8-7.66,2.61-15.39,5.17-22.66,5.74-16.36,15.51-22.74,32.61-23.43,15.92-.64,24.54,8.7,30.34,21.66,7.09,15.86,8.69,32.88,8.86,50,.25,24.49.06,48.99.06,78.71-1.36,26.6,2.85,58.62-3.44,90.27Z"/>
      <path class="cls-1" d="M1878.71,140.8c-.41,9.1-2.41,11.56-11.72,11.55-270.56-.27-541.11-.22-811.66-.2-269.06.01-538.12.01-807.18.01-14.59,0-14.61-.26-13.61-14.8.3-4.24,1.39-6.19,5.73-5.88,2.22.17,4.46.02,6.69.02,539.71,0,1079.41,0,1619.12.02,6.33,0,13.15-2.2,12.63,9.28Z"/>
      <path class="cls-1" d="M1678.89,2002.69c-.82,2.75-2.23,3.49-4.72,3.42-2.6-.07-5.2,0-7.81,0-407.75,0-815.5,0-1223.25-.03-6.23,0-13.11,2.4-12.66-9.15.35-9.19,2.4-11.47,11.67-11.46,204.43.3,408.87.23,613.3.23h611.07c11.98,0,15.84,5.46,12.4,16.99Z"/>
      <path class="cls-1" d="M1702.04,1731.5c-6.11.49-5.99-3.31-6.74-7.61-3.25-18.74-8.86-36.76-18.19-53.44-6.53-11.69-16.33-18.89-29.86-20.82-6.86-.98-9.73.52-9.65,8.49.41,41.98.19,83.97.19,125.95-.01,41.25.26,82.5-.23,123.73-.1,8.59,2.31,11.11,10.6,10.1,5.06-.62,10.32.77,15.5.81,6.5.05,5.21,4.55,5.48,8.5.34,5-2.72,5.12-6.37,5.12-36.78-.05-73.57-.07-110.35.02-4.16,0-7.31-.23-7.07-5.73.2-4.36.21-8.48,5.92-8.76,4.44-.23,9-.69,13.34-.02,9.54,1.5,12.59-1.31,12.53-11.66-.5-77.65-.27-155.31-.27-232.97,0-5.57-.39-11.18.1-16.71.56-6.42-2.32-7.44-7.9-6.85-13.95,1.48-24.57,7.89-31.33,20.24-8.22,15.04-15.15,30.54-16.66,47.94-.26,2.93-.78,5.97-1.91,8.66-1.91,4.53-6.35,5-10.41,4.57-4.68-.49-2.61-4.63-2.55-7.06.61-25.99,1.56-51.97,2.15-77.95.17-7.47,1.93-10.78,10.83-10.7,58.69.51,117.39.39,176.08.1,7.22-.03,10.82,1.28,10.92,9.28.33,26.36,1.15,52.72,1.7,79.08.08,3.93-.61,7.26-5.85,7.69Z"/>
      <path class="cls-1" d="M1165.39,1321.12c0,7.62-.27,11.78-10.22,11.79-10.05.02-10.24-4.31-10.23-11.89.14-181.4.11-362.8.11-544.19s-.03-361.31.19-541.96c.01-4.24-3.86-11.41,3.37-12.71,9.06-1.64,16.71,6.02,16.71,14.91,0,136.3-.03,272.59-.03,408.89-.01,225.05-.04,450.1.1,675.16Z"/>
      <path class="cls-1" d="M1247.25,1321.19c0,7.71-.38,12.03-10.27,11.65-8.3-.31-10.3-2.22-10.29-10.52.23-354.17.19-708.33.19-1062.5v-8.69q20.24,3.81,20.24,22.06c0,349.34-.02,698.67.13,1048Z"/>
      <path class="cls-1" d="M1327.34,672.28c0,215.94,0,431.88-.01,647.82,0,12.03-4.99,15.45-16.9,12.42-4.54-1.16-3.35-4.21-3.41-6.85-.16-7.8-.07-15.61-.07-23.41,0-165.39,0-330.78.01-496.17.01-170.59-.04-341.19.33-511.78.01-3.87-5.79-12.28,4.32-12.56,11.48-.31,15.71,4.22,15.71,14.77.02,125.25.02,250.51.02,375.76Z"/>
      <path class="cls-1" d="M1478.08,1911.7c-21.33,29.53-65.45,30.36-87.44,18.22-3.57-1.97-7.31-3.75-10.55-6.19-6.74-5.07-11.9-5.96-16.1,3.18-2.47,5.37-8.24,6.67-13.51,5.22-5.6-1.55-2.62-6.89-2.74-10.4-.41-11.51-.16-23.04-.16-34.56s-.2-23.79.13-35.68c.1-3.24-2.89-8.64,4.63-8.72,6.43-.07,8.01,2.94,8.45,8.76.93,12.3,4.43,24.15,9.65,35.23,8.84,18.73,22.99,32.07,43.58,36.62,18.64,4.12,36.65-4.17,46.05-19.72,10.28-17,8.84-39.71-3.94-55.24-9.51-11.55-21.26-20.71-33.26-29.52-16.15-11.86-33.31-22.52-47.07-37.32-27.45-29.52-35.39-63.94-22.41-101.99,14.64-42.89,55.78-59.82,96.95-41.13,4.04,1.84,8.25,3.65,11.72,6.32,6.06,4.68,10.47,4.57,12.96-3.2,2.13-6.62,7.27-6.78,12.41-5.78,5.67,1.1,2.79,6.09,2.83,9.19.28,20.07.27,40.14.01,60.21-.04,3.22,2.94,8.71-4.56,8.77-5.46.04-7.81-2.07-8.91-7.48-4.01-19.72-12.29-37.33-27.78-50.79-18.64-16.21-42.5-17.26-58.86-2.86-14.32,12.62-16.91,28.77-6.6,44.83,10.67,16.64,26.51,27.83,42.37,38.93,14.88,10.42,30.6,19.68,43.22,33.13,35.21,37.49,38.48,101.06,8.93,141.97Z"/>
      <path class="cls-1" d="M1412,496.13c.01,275.04-.01,550.08.13,825.13,0,7.7-.52,11.89-10.33,11.6-8.61-.24-10.13-2.66-10.12-10.7.21-334.47.18-668.94.18-1003.4v-9.57c3.9,1.03,6.98,2.13,10.15,2.62,8.06,1.24,10.27,5.56,10.22,13.72-.4,56.86-.23,113.73-.23,170.6Z"/>
      <path class="cls-1" d="M1881.2,1927.69c-.15,5.37-2.67,5.87-6.93,5.85-27.86-.1-55.72-.19-83.57.07-5.73.05-6.64-2.41-6.79-7.27-.19-6.25,4.05-5.52,7.47-4.99,10.86,1.67,12.02-2.43,9.51-12.18-14.13-54.9-27.65-109.96-41.44-164.96-.43-1.73-1.45-3.32-2.72-6.15-15.86,59.46-31.34,117.71-47.03,175.91-1.75,6.49.61,7.8,6.37,7.34,4.43-.35,8.92.07,13.37-.11,3.94-.15,6.21.71,6.11,5.45-.1,4.34-.68,6.98-5.97,6.91-16.34-.21-32.68-.14-49.03-.03-4.38.03-6.81-.96-6.86-6.15-.06-5.1,2.11-6.96,6.59-6.07,12.8,2.54,14.97-5.44,17.57-15.42,20.11-77.44,40.75-154.74,61.21-232.08,2.75-10.39,5.46-20.78,8.04-31.21,1.54-6.25,2.79-11.03,11.69-11.03,8.41.01,10.47,3.53,12.25,10.31,21.52,82.07,43.26,164.09,64.89,246.13,1.99,7.51,3.83,15.07,5.47,22.66,1.49,6.92,4.29,11.94,12.57,10.64,5.01-.78,7.39.53,7.23,6.38Z"/>
      <path class="cls-1" d="M1055.58,1927.32c0,3.82-.45,6.26-5.29,6.24-28.62-.16-57.23-.17-85.84,0-5.3.04-5.9-2.59-6.01-6.88-.12-4.62,2.01-5.82,6.04-5.46,1.47.14,3.01-.19,4.45.06,8.75,1.46,9.7-2.33,7.7-9.88-9.31-35.11-18.33-70.29-27.26-105.5-5.62-22.14-10.91-44.36-16.34-66.55-.78.03-1.55.06-2.32.09-9,34.37-17.98,68.75-27,103.11-6.12,23.3-11.94,46.68-18.67,69.8-2.22,7.64-.07,9.42,6.86,9.03,4.08-.23,8.18.07,12.26-.16,4.24-.25,6,1.3,5.85,5.73-.13,3.78-.52,6.56-5.25,6.54-17.09-.07-34.18-.1-51.28.03-4.78.03-5.2-2.72-5.32-6.46-.13-4.22,1.47-6.69,5.75-5.74,13.34,2.93,16.18-4.93,18.98-15.78,22.6-87.56,45.79-174.97,68.71-262.45,1.6-6.13,1.96-11.52,11.19-11.48,8.58.04,11.25,3.3,13.18,10.74,23.03,88.6,46.32,177.14,69.52,265.7,2.04,7.78,3.72,15.67,14.87,13.34,4.91-1.03,5.22,2.14,5.22,5.93Z"/>
      <path class="cls-1" d="M1483.38,1332.91c-9.36-.36-10.6-3.45-10.59-11.56.21-161.69.16-323.39.16-485.08s-.06-320.41.25-480.61c.01-5.01-5.02-13.99,4.01-15.09,10.57-1.29,16.21,5.75,16.2,16.36-.04,119.11-.13,238.22-.13,357.32.01,201.85.08,403.7.14,605.55,0,6.92,1.68,13.57-10.04,13.11Z"/>
      <path class="cls-1" d="M1330.24,1926.18c-.12,7.57-6.12,6.04-10.67,6.07-14.49.13-28.97.05-43.45.05s-28.96-.06-43.45.04c-4.36.03-7.92.25-7.78-6.1.1-5.02,1.43-7.05,6.56-7.93,5.02-.86,12.34,2.01,14.53-2.07,2.5-4.68,1.12-11.52,1.13-17.43.04-79.09-.15-158.19.24-237.29.05-9.94-2.9-13.43-12.64-12.41-3.94.41-9.91,3.05-9.85-5.77.05-8.09,4.67-7.76,10.19-7.75,28.58.07,57.17.04,85.76.01,4.9,0,9.61-.74,9.54,6.97-.07,7.64-4.75,7.55-9.61,6.81-10.17-1.56-12.9,2.27-12.85,12.49.45,81.18.38,162.37.15,243.55-.03,8.72.65,14.52,11.64,12.67,5.69-.96,10.68,1.04,10.56,8.09Z"/>
      <path class="cls-1" d="M192.44,2384.91c-2.19-.19-4.27-1.36-6.46-1.62-14.7-1.75-23.78-9.81-29.61-23.42-8.02-18.7-16.99-37.01-26.27-55.13-3.67-7.17-1.34-8.99,5.26-10.83,17.07-4.78,32.84-12.24,43.6-27.05,10.9-14.99,14.87-31.99,7.94-49.46-6.58-16.59-22.29-19.49-37.93-20.18-31.11-1.39-62.3,2.72-93.41-1.03-3.58-.43-4.11,2.49-4.14,5.24-.02,2.46-.74,5.09,3.27,5.72,4.74.74,9.31,2.99,14.03,3.31,7.26.51,8.14,3.97,6.77,10.11-10.89,48.86-25.68,96.61-40.87,144.24-3.5,10.98-10.45,17.64-22.47,18.21-2.54.12-5.03,1.06-7.55,1.63-4.24.96-5.04,4.21-4.41,7.68.76,4.2,4.12,1.71,6.31,1.73,11.88.12,23.76.06,35.64.06.01-.47.02-.94.03-1.41,12.23.56,24.49.83,36.69,1.81,4.83.39,7.17-1.42,7.59-5.62.47-4.79-3.41-4.91-6.8-5.23-1.48-.14-2.96-.27-4.43-.46-14.2-1.84-16.35-4.83-12.61-19.04,5.38-20.42,10.99-40.78,16.74-61.1.64-2.25.25-5.33,3.23-6.63,5.46-2.4,19.96,3.44,22.34,9.25,10.93,26.72,22.74,53.09,31.81,80.54,1.37,4.14,2.08,8.2,8.56,7.73,15.17-1.11,30.42-1.58,45.61.39,2.65.34,5.26.44,5.75-3.32.45-3.42-.1-5.76-4.21-6.12ZM101.57,2284.88c-16.39.35-16.56.3-12.02-16.08,4.33-15.66,9.24-31.16,13.56-46.83,1.97-7.15,6.28-10.55,13.51-10.59,6.66-.03,13.36-.49,19.99.04,20.31,1.6,29.98,15.33,25.28,35.38-4.94,21.11-23.75,35.72-49.21,38.03-3.67.34-7.4.05-11.11.05Z"/>
      <path class="cls-1" d="M1357.44,2046.86c-183.94-.19-367.87-.21-551.81.05-8.8.02-10.92-2.31-11.16-11.01-.26-9.42,3.77-9.79,11.11-9.77,91.78.19,183.56.13,275.35.13s184.3.13,276.46-.22c8.84-.03,10.72,2.4,10.96,10.93.26,9.2-3.36,9.89-10.91,9.89Z"/>
      <path class="cls-1" d="M1094.72,2346.42c13.94-49.58,30.02-98.46,47.31-146.96,1.25-3.52,5.15-7.76,1.19-11.22-3.49-3.05-7.87-.38-11.46,1.35-10.09,4.84-20.69,8.09-31.39,11.16-4.17,1.19-10.02,2.29-9.02,7.92.97,5.51,6.78,2.73,10.13,2.57,7.91-.37,11.02,1.61,8.22,10-3.73,11.22-7.24,22.56-9.96,34.06-1.52,6.43-3.68,8.91-10.4,6.52-7.58-2.7-15.42-2.01-23.01.35-36.5,11.32-57.9,37.22-68.78,72.65-4.56,14.85-4.38,30.13.79,44.94,5.93,16.97,19.77,21.96,35.57,13.19,6.22-3.45,11.57-8.04,16.41-13.22,6.05-6.46,12.08-12.94,18.12-19.41.84.43,1.67.86,2.51,1.29-1.69,7.16-3.23,14.36-5.13,21.46-1.19,4.49-2.35,9.56,1.42,12.47,3.53,2.72,8.48,1.42,12.76-.42,10.75-4.64,19.58-12.13,28-19.89,4.04-3.71,14.06-6.55,9.59-13.26-5.61-8.41-9.91,2.46-14.87,4.45-3.41,1.36-6.81,4.75-10.23,2.96-4.13-2.17-1.28-6.64-.83-9.98.58-4.39,1.86-8.7,3.06-12.98ZM1090.67,2288.07c-7.47,29.44-17.41,57.54-41.17,78.36-6.28,5.5-12.47,14.18-21.63,10.48-9.81-3.95-7.77-14.8-8.54-24.03,1.2-21.76,6.73-42.68,19.84-61,11.58-16.19,29.25-20.75,46.19-12.91,4.19,1.94,6.63,3.88,5.31,9.1Z"/>
      <path class="cls-1" d="M1814.79,2377.19c-8.48,7.8-18.24,13.93-29.38,17.55-13.8,4.48-17.23,1.63-14.86-12.39,3.43-20.24,11.18-39.14,17.95-58.35,3.57-10.13,8-20.02,9.58-30.73.5-3.44,2.31-8.14-1.35-10.25-3.13-1.8-7.41-.18-10.55,1.91-12.43,8.24-23.67,17.84-33.23,29.36-15.23,18.37-23.38,40.21-31.02,62.35-6.47,18.75-6.61,18.7-28.47,17.21,13.69-46.25,27.32-92.36,40.98-138.47,2.84-9.58,5.81-19.14,8.68-28.71,4.22-14.03,3.35-15.18-11.32-15.27-1.84-.01-3.68,0-5.59,0-1.12-6.52,1.43-8.99,7.73-9.93,11.46-1.72,21.65-7.4,32.22-11.87,3.1-1.32,6.79-4.68,10.28-1.42,3.41,3.2.64,7.1-.46,10.41-12.44,37.47-25.03,74.89-37.61,112.41,5.01,2.37,6.86-1.61,9.26-4.11,9.01-9.37,17.73-19.05,26.99-28.16,8.01-7.9,17.42-13.84,28.41-16.89,16.62-4.62,23.8,1.55,20.83,18.33-1.23,6.9-3.21,13.7-5.32,20.41-6.22,19.78-12.65,39.5-19.04,59.23-1.25,3.85-3.83,8.62-.19,11.27,2.87,2.1,6.74-1.58,10-3.3,4.82-2.54,10.16-11.42,14.48-5.76,5.03,6.59-4.55,11.08-9,15.17Z"/>
      <path class="cls-1" d="M970.16,2375.92c-9.09,8.18-18.24,16.56-30.5,19.86-13.17,3.55-17.44-.58-14.69-14.01,4.34-21.17,13.39-40.82,19.94-61.27,3.29-10.24,6.55-20.45,8.2-31.14,1.06-6.83-2.26-8.08-7.43-6.13-4.08,1.54-7.89,4.05-11.47,6.61-31.88,22.69-48.46,55.33-59.36,91.63-3.3,10.98-13.37,16.58-24.12,13.33-5.72-1.73-2.02-5.34-1.2-7.95,7.34-23.32,15.1-46.51,22.2-69.91,2.85-9.37,6.8-18.77,4.96-29.65-7.31,1.85-10.87,8.3-16.72,11.21-1.83.91-3.54,3.08-5.89.87-2.34-2.22-2.18-4.58-.34-6.92,11.56-14.69,26.19-25.65,43.93-30.95,8.69-2.6,8.63,6.6,7.72,11.84-1.39,7.95-4.51,15.62-7.16,23.33-2.38,6.93-5.1,13.74-7.68,20.6.53.4,1.06.8,1.58,1.2,8.01-9.19,15.81-18.57,24.08-27.52,11.44-12.37,24.12-23.17,40.5-28.58,6.8-2.25,14.13-4.42,19.92,1.36,5.38,5.38,3.64,12.67,1.74,19.02-7.74,25.9-15.87,51.69-23.83,77.53-1.08,3.49-3.86,8.13-.91,10.39,3.34,2.55,7.59-.88,10.82-3.16,4.91-3.47,10.64-11.83,15.52-5.3,4.03,5.39-5.45,9.78-9.81,13.71Z"/>
      <path class="cls-1" d="M1680.22,2368.27c-11.47,10.56-22.99,21.36-37.64,27.22-13,5.2-18.61.41-15.99-13.23,4.36-22.64,13.48-43.84,20.83-65.57,2.73-8.07,5.33-16.2,7.51-24.43.79-3,1.69-6.9-1.93-9.08-2.85-1.71-5.68-.29-8.42,1.03-7.45,3.61-13.62,8.91-19.64,14.47-22.59,20.89-38.33,45.77-46.36,75.76-5.4,20.15-6.16,19.95-28.43,20.02-.89-5.63,2.03-10.54,3.53-15.55,7.93-26.6,16.21-53.11,24.31-79.66,1.08-3.51,3.19-8.21-.02-10.45-4.31-2.99-6.74,2.76-10.1,4.51-4.11,2.15-7.99,10-12.35,5.12-4.97-5.57,2.91-9.15,6.34-12.98,8.83-9.88,19.89-16.74,31.85-21.91,10.49-4.54,14.77-.91,12.75,10.5-2.69,15.21-10.13,28.96-14.92,44.51,5.15-1.28,6.74-5.29,9.15-8.15,13.4-15.94,26.59-32.16,45.12-42.53,9.3-5.19,20-12.46,29.95-4.65,9.73,7.63,4.56,19.43,1.6,29.05-7.07,23-16.1,45.4-21.74,68.84-.75,3.14-4.23,7.68-.05,10,3.21,1.78,6.95-1.35,9.99-3.47,3.03-2.12,5.81-4.64,8.96-6.57,2.1-1.29,4.65-2.6,6.83.3,2.05,2.73.83,5.08-1.13,6.9Z"/>
      <path class="cls-1" d="M427.61,2362.67c-2.23,1.3-4.14,3.15-6.35,4.49-3.03,1.84-6.2,5.28-9.84,3.12-4.03-2.4-1.78-6.57-1.08-10.16,5.76-29.58,16.23-57.67,27.17-85.6,1.84-4.71,5.6-9.84-3.37-11.48-27.04-4.91-52.32-1.81-74.96,15.27-29.22,22.04-44.93,50.91-43.96,87.76.31,11.57,3.13,23.71,15.12,29.09,11.4,5.11,21.54-.45,30.84-7.25,9.59-7,17.02-16.23,26.73-26.32,1.33,8.97-2.72,14.84-3.61,21.28-.59,4.29-2.27,9.37,1.94,12.51,3.96,2.95,8.51,1.19,12.66-.73,13.33-6.15,24.27-15.6,34.98-25.37,2.29-2.09,5.82-4.1,2.66-8.2-4.03-5.22-6.21.02-8.93,1.59ZM368.49,2367.4c-1.91,1.74-3.89,3.48-6.06,4.89-4.88,3.19-9.68,7.68-16.13,4.73-6.35-2.9-6.83-9.17-7.29-15.16-.17-2.22-.03-4.46-.03-6.68,1.54-24.75,9.14-47.29,25.95-65.94,10.93-12.13,24.39-17.74,41.05-13.49,3.79.97,6.24,1.82,5.05,6.44-8.1,31.45-17.39,62.29-42.54,85.21Z"/>
      <path class="cls-1" d="M828.68,2285.02c2.12-5.1,4.12-10.28,5.65-15.58.82-2.84.82-6.27-3.72-6.3-12.52-.08-24.71-4.37-37.56-1.43-35.55,8.12-60.18,29.03-74.54,62.19-7.34,16.94-11.22,34.56-6.53,53.04,4.59,18.04,19.3,24.8,35.96,16.68,8.49-4.14,15.14-10.59,21.5-17.38,4.21-4.48,8.37-9.02,12.55-13.53.64.33,1.29.66,1.93.99-1.37,6.69-2.71,13.39-4.12,20.08-.87,4.18-1.03,8.74,2.24,11.46,3.76,3.13,8.45,1.65,12.54-.51,12.2-6.43,23.02-14.85,33.32-23.91,2.8-2.46,8.77-5.1,3.6-10.27-4.7-4.7-6.52,2.09-9.78,3.29-1.33.5-2.32,1.86-3.61,2.57-3.44,1.9-6.81,6.15-10.87,3.8-4.91-2.83-2.35-8.27-1.41-12.21,5.89-24.85,13.04-49.33,22.85-72.98ZM779.44,2350.19c-6.26,8.9-13.7,16.61-22.74,22.69-13.15,8.87-20.61,5.38-22.25-10.34-.23-2.2-.03-4.45-.03-6.68,1.45-23.47,8.1-45.25,23.16-63.67,11.33-13.87,25.53-21.31,44.15-16.18,3.52.96,6.45,1.33,4.81,6.38-7.53,23.21-12.71,47.33-27.1,67.8Z"/>
      <path class="cls-1" d="M1952.15,2284.07c-6.42-18.29-22.27-26.69-40.42-22.85-37.01,7.83-69.94,48.74-69.49,86.34.07,9.3.94,18.48,4.04,27.35,5.58,15.95,13.88,21.71,30.59,21.83,25.87.2,44.15-14,59.04-32.64,18.8-23.54,26.65-50.36,16.24-80.03ZM1911.1,2372.25c-7.67,8.72-16.84,12.88-28.78,9.39-11.69-3.41-15.25-12.47-16.14-22.86-2.45-28.82,6.69-54.13,25.21-75.96,7.09-8.36,16.72-10.69,27.32-6.76,9.79,3.63,12.5,11.89,13.44,21.16.41,4.07.59,8.15.95,13.26-1.39,22.01-6.23,43.83-22,61.77Z"/>
      <path class="cls-1" d="M1537.1,2298.99c-3.36-31.54-28.47-46.46-57.51-34.15-32.72,13.86-56.54,49.62-56.52,84.86.02,38.28,19.64,55.06,52.07,44.51,38.61-12.56,66.24-55.01,61.96-95.22ZM1496.64,2366.76c-4.03,6.33-8.98,11.71-16.32,14.47-15.68,5.89-27.91.48-31.49-15.83-6.96-31.75,2.85-59.24,24.15-82.91,6.93-7.7,16.23-10.68,26.34-7.21,10.38,3.56,12.23,12.98,13.38,22.38.49,4.04.47,8.14.6,10.77-.67,21.86-5.63,41-16.66,58.33Z"/>
      <path class="cls-1" d="M1245.24,2285.25c-6.94-19.88-21.84-27.47-42.9-23.12-17.37,3.6-29.53,15.02-41.89,26.08-22.56,20.19-32.35,59.09-22.25,85.8,5.9,15.61,15.62,22.82,30.53,22.66,50.67-.53,93.48-62.87,76.51-111.42ZM1224.96,2308.88c-.04,18.91-4.33,36.76-13.66,53.27-4.07,7.21-9.26,13.48-16.73,17.48-14.45,7.74-29.77,1.72-34.77-13.88-3.62-11.32-2.38-22.71.14-34.1,3.58-16.15,9.69-31.16,19.97-44.21,9.63-12.24,18.84-15.62,30.88-11.57,12.83,4.32,13.48,15.38,14.15,26.32.14,2.22.02,4.46.02,6.69Z"/>
      <path class="cls-1" d="M650.73,2335.81c-12.16,11.71-24.45,23.29-36.69,34.93,15.79-6.9,30.76-3.2,45.95.76,17.41,4.53,20.38,3.09,30.37-11.73,1.83-2.73,2.75-6.12,7.42-3.71,4.8,2.48,2.34,5.37,1.17,8.32-2.87,7.29-6.98,13.87-11.47,20.25-5.39,7.66-12.71,11.35-21.98,10.26-7.33-.86-14.73-1.88-21.84-3.79-16.17-4.33-32.08-6.02-47.68,1.85-3.29,1.66-6.07,2.16-8.84-1.16-3.23-3.86.03-6.11,1.82-8.53,19.31-26.08,42.82-48.24,66.15-70.55,8.47-8.11,17-16.15,27.91-26.5-13.29,4.62-23.73,5.3-33.38.64-11.63-5.6-18.96-1.83-24.69,8.54-1.75,3.18-2.72,8.62-8.62,5.36-5.93-3.28-1.5-7.27-.03-10.3,2.88-5.97,6.44-11.66,10.2-17.13,5.87-8.54,13.96-11.82,24.2-9,6.42,1.76,12.94,3.21,19.27,5.22,10.48,3.34,20.38,1.83,30.32-2.26,3.53-1.45,7.58-7.06,11.4-1.03,3.12,4.95-1.9,8.08-4.44,11.25-16.99,21.21-37.01,39.52-56.52,58.31Z"/>
      <path class="cls-1" d="M312.55,2269.39c-4.56-8.36-16.74-11.06-30.2-7.56-39.49,10.3-72.64,53.25-72.44,93.95,0,1.86-.04,3.72.01,5.57.81,32.33,20.85,44.47,50.04,30.13,10.35-5.09,19.65-11.88,28.81-18.87,2.96-2.25,6.36-3.71,3.24-8.46-3.19-4.87-6.04-3.63-9.96-.93-8.23,5.67-16.62,11.13-26.35,14.12-5.21,1.6-10.77,2.74-14.82-1.15-9.76-9.36-8.05-21.54-6.74-33.39,1.03-9.36,8.38-9.92,15.45-11.26,22.83-4.31,43.35-12.99,57.79-32.3,6.72-8.98,11.21-18.8,5.17-29.85ZM291,2289.11c-6.49,19.11-26.55,32.26-51.49,33.01,5.97-21.12,16.72-37.91,36.94-47.17,4.48-2.05,10.36-4.29,14.51.42,3.52,4.01,1.62,9.09.04,13.74Z"/>
      <path class="cls-1" d="M479.22,2364.03c-.66,2.34-2.42,5.36.34,7.14,2.4,1.54,5.15-.46,7.26-1.66,3.84-2.19,7.36-4.98,10.89-7.68,3.4-2.59,6.52-3.22,9.59.44,3.28,3.91-1.02,5.3-2.68,6.93-9.84,9.68-20.82,17.93-33.12,24.24-3.59,1.83-7.38,3.59-10.03,3.36-10.25-.22-11.44-6.22-10.02-12.41,2.74-11.89,6.14-23.67,9.86-35.3,13.21-41.29,25.81-82.74,36.93-124.64,3.43-12.94,2.75-13.47-10.26-12-2.87.33-7.04,3.08-8.1-2.29-.76-3.82,1.77-6.38,5.16-7.61,13.92-5.05,28.05-9.42,41.87-14.84,8.34-3.27,5.57,3.54,4.32,7.53-12.97,41.34-26.08,82.64-38.97,124.01-4.62,14.84-8.79,29.83-13.04,44.78Z"/>
      <path class="cls-1" d="M1722.46,92.53c1.6-18.83-4.56-33.39-27.43-39.81,10.74-3.22,18.48-4.38,24.47-9.78,12.41-11.2,10.37-29.17-5-35.41-20.03-8.14-40.96-4.86-63.44-2.57,11.94.55,8.72,8.14,8.75,13.76.12,24.13.08,48.26.03,72.4-.01,6.06,2.1,13.2-6.97,15.83h36.11c-4.99-3.69-5.73-8.03-5.48-13.4.44-9.64-.12-19.31.26-28.95.12-3.21-2.67-8.5,2.48-9.33,3.96-.63,7.41,2.95,9.31,6.85,3.84,7.92,3.35,16.64,4.12,25.07,1.85,20.26,11.28,26.38,32.82,18.94-5.92-4.02-10.61-6.8-10.03-13.6ZM1687.2,47.83c-6.44-1.1-2.9-6.45-3.45-9.88-.57-3.59-.13-7.35-.13-11.04,0-2.94-.4-5.97.11-8.82.63-3.53-2.77-9.15,2.86-10.19,5.58-1.03,11.27,1.22,13.65,7.11,3.41,8.43,3.24,17.37.47,25.85-1.97,6.01-7.48,7.99-13.51,6.97Z"/>
      <path class="cls-1" d="M1410.92,2292.46c-1.18,2.06-2.37,3.66-5.01,3.67-4.58.01-3.71-3.84-4.55-6.37-5.23-15.78-18.89-21.85-31.89-14.08-8.93,5.34-10.95,12.76-5.56,21.66,5.06,8.35,12.59,14.58,19.23,21.57,12.97,13.66,26.85,27.62,17.73,48.69-9.38,21.68-27.77,29.7-50.59,29.32-4.44-.28-9.01.01-13.3-.93-21.06-4.6-25.31-17.11-11.52-33.57,4.2-5.01,6.11-2.62,7.99,2.36,5.1,13.5,18.19,20.62,31.75,17.75,14.21-3.01,20-14.4,13.92-27.71-5.18-11.36-13.85-20.16-22.38-28.91-10.47-10.74-19.96-21.8-14-38.19,6.19-17.01,20.64-23.52,36.92-26.64,5.36-1.03,11.2-.87,16.62-.03,20.96,3.25,25.3,12.91,14.64,31.41Z"/>
      <path class="cls-1" d="M2056.64,2272.75c-.62,2.89-1.29,5.86-2.55,8.5-2.46,5.13-1.39,14.14-7.92,14.53-6.16.37-5.65-8.24-7.8-13.08-3.3-7.44-9.9-9.99-17.24-10.12-7.7-.15-14.82,2.05-18.68,9.67-3.47,6.86-1.62,13.11,3.29,18.41,7.31,7.9,14.93,15.5,22.4,23.25,12.43,12.91,20.23,28.35,12.2,45.38-8.51,18.03-25.44,26.2-45.36,27.4-1.85.11-3.72.02-6.6.02-9.36.8-18.62-2.06-27.48-7.57-4.86-3.02-6.05-5.93-3.15-10.7.96-1.58,1.49-3.47,2.63-4.89,3.37-4.19,2.13-12.84,7.82-13.3,6.35-.51,4.74,8.05,7.55,12.12,6.79,9.84,28.42,13.56,38.59,6.44,9.47-6.62,9.89-19.12.33-31.45-6.13-7.91-13.1-15.19-19.82-22.63-9.16-10.15-18.19-20.66-13.1-35.58,5.92-17.31,20.11-25.1,36.99-28.37,12.13-2.35,23.43,1.64,34.59,6.11,3.26,1.3,3.89,3.11,3.31,5.86Z"/>
      <path class="cls-1" d="M1079.26,88.52c-.03-14.69-3.97-27.16-19.08-33.29-1.24-.5-3.83-.49-3.31-3.42,5.51-2.17,11.51-2.74,16.54-6.14,13.86-9.34,14.68-29.71.53-37.03-20.25-10.48-41.93-5.24-64.55-3.94,10.6,1.45,8.38,8.44,8.4,14.07.07,24.12.03,48.24.01,72.37,0,6.11,1.87,13.14-7.01,15.93h36.51c-6.84-2.63-7.81-7.05-7.52-13.2.47-10-.04-20.05.23-30.07.08-2.95-2.06-7.61,1.9-8.6,4.01-1,7.81,1.92,10.15,5.53,2.7,4.16,3.3,8.93,3.33,13.84.04,6.67,0,13.32,1.84,19.88,4.1,14.65,16.37,19.33,30.35,10.41-8.32-2.91-8.31-9.57-8.32-16.34ZM1053.28,46.08c-3.73,2.47-8.03,2.74-11.73,1.27-3.22-1.27-1.42-5.26-1.6-8.03-.26-4.06-.06-8.16-.06-12.24,0-3.35-.02-6.69.01-10.03.08-10.1,3.55-12.11,12.37-7.18,10.34,5.79,10.99,29.61,1.01,36.21Z"/>
      <path class="cls-1" d="M466.57,53.93c.04-17.06-4.79-30.35-14.8-40.68-16.28-16.83-35.77-16.43-51.12,1.03-17.49,19.89-18.26,60.46-1.54,81.01,17.82,21.92,43.2,20.13,57.55-4.24,6.7-11.39,10.17-23.8,9.91-37.12ZM441.2,50.68c-.15,11.49-.64,22.98-1.21,34.45-.61,12.45-5.65,19.74-13.93,19.33-11.4-.57-11.6-10.5-12.47-18.04-1.19-10.23-.3-20.71-.3-31.08-.96-12.95-1.86-25.99,2.01-38.61,1.69-5.52,4.42-10.82,11.06-10.77,6.47.05,9.52,4.96,11.3,10.6,3.5,11.12,3.69,22.63,3.54,34.12Z"/>
      <path class="cls-1" d="M1553.11,14.5c-12.79-16.18-32.04-18.31-47.83-4.95-13.8,11.67-18.93,27.01-17.65,45.37-1.58,15.71,2.95,30.23,13.74,42.59,15.06,17.24,34.47,17.33,49.9.43,19.49-21.34,20.34-60.03,1.84-83.44ZM1537.73,93.51c-1.17,5.73-3.67,11.1-10.5,10.98-6.78-.13-10.41-4.95-12.34-11.03-4.12-12.98-2.87-26.35-2.9-39.63,1.33-11.74-1.18-23.73,2.62-35.28,2-6.07,4.22-12.89,11.73-12.91,7.63-.01,10.21,6.86,11.4,13.05,4.82,24.9,5.07,49.9-.01,74.82Z"/>
      <path class="cls-1" d="M584.45,2362.52c2.76,3.82-1.38,5.21-3.17,6.96-9.31,9.11-19.49,17.1-30.91,23.51-6.2,3.48-13.2,6.07-18.83,1.79-5.5-4.18-3.4-11.92-1.58-17.63,6.09-19.05,13.05-37.81,19.52-56.74,3.57-10.47,6.82-21.04,10.58-32.69-8.31-.65-11.65,4.03-15.66,7.78-2.44,2.29-4.82,7.19-8.92,3.68-4.74-4.07.06-7.47,2.49-10.21,9.98-11.21,21.77-20.2,35.45-26.42,10.34-4.7,13.55-2.1,11.81,9.43-2.94,19.58-11.26,37.53-17.47,56.13-4.1,12.28-7.99,24.65-11.67,37.06-.64,2.16-2.15,5.54.85,6.9,1.56.7,4.42-.32,6.19-1.4,4.42-2.69,8.65-5.72,12.76-8.88,3.25-2.52,6.15-2.6,8.56.73Z"/>
      <path class="cls-1" d="M617.91,20.51c.02,25.99.13,51.98-.13,77.97-.04,3.59,2.79,9.21-2.34,10.63-5.33,1.48-6.94-3.81-8.93-7.94-11.75-24.33-23.7-48.56-35.69-72.77-.83-1.67-.86-4.66-4.71-3.89,0,24.03.52,48.17-.28,72.25-.27,8.19,7.1,5.21,11.12,9.78-9.35,2.02-17.07,1.46-25.87.01,11.67-3.44,8.71-12.36,8.74-20,.09-22.65.1-45.3-.01-67.95-.03-5.78,3.05-13.72-9.77-12.78,11.29-4.3,21-3.02,30.55-2.52,3.15.16,3.56,4.35,4.85,6.89,8.02,15.85,15.95,31.75,26,47.64,0-15.84.04-31.67-.02-47.51-.01-5.16-6.33-.91-7.52-5.75,6.89-3.92,14.08-.66,21.93-.68-9.81,2.91-7.92,10.16-7.92,16.62Z"/>
      <path class="cls-1" d="M1239.86,7.73c-3.64,2.24-1.75,6.03-1.86,9.07-.77,22.22,1.66,44.55-1.67,66.68-3.78,25.15-20.29,34.05-43.41,24.05-7.52-3.25-11.51-8.47-12.88-16.6-4.11-24.37-1.94-48.87-2.1-73.33-.04-5.01,2.92-11.71-9.11-11.12,1.09-1.02,2.18-2.04,3.27-3.06h34.98c-9.38,3.63-6.84,11.39-6.87,18.03-.07,18.2-.13,36.39.05,54.58.05,5.16.57,10.37,1.53,15.43,1.15,6,3.15,11.9,10.96,11.71,7.53-.19,13.88-2.63,16.56-10.56,1.69-4.97,2.23-10.11,2.22-15.35-.05-19.31.03-38.62-.04-57.93-.02-6.02,2.32-13.44-9.8-13.65,6.72-3.78,11.82-2.67,16.67-2.8,2.27-.05,5.88-1.39,6.38,2.11.48,3.31-3.26,1.74-4.88,2.74Z"/>
      <path class="cls-1" d="M923.88,10.79c-.49,8.38-.12,16.82-.12,25.31-6.34.06-4.76-4.73-5.69-7.29-1.77-4.85-2.6-10.04-5.53-14.45-2.41-3.64-6.41-6.63-10.08-5.89-4.86.98-2.13,6.25-2.16,9.47-.25,24.16-.14,48.33-.14,72.49q.01,11.76,10.47,15.9h-44.53c14.18-1.18,10.63-11.63,10.65-19.98.05-25.98.02-51.96.02-79.17-12.88,3.28-16.28,11.81-17.81,21.82-.48,3.14-.02,7.85-4.81,6.94-3.64-.69-1.71-4.97-1.96-7.67-.16-1.83.25-3.7.39-5.55q1.46-19.92,22.15-19.92c13.76,0,27.52.32,41.25-.16,6.46-.22,8.27,1.97,7.9,8.15Z"/>
      <path class="cls-1" d="M1401.15,10.86c-.47,8.57-.12,17.17-.12,28.39-6.37-5.72-5.45-10.91-7.09-15.05-1.77-4.47-3.12-9.21-6.73-12.66-2.19-2.09-5.13-4-7.94-3.27-4,1.03-1.96,4.96-1.98,7.56-.13,24.87-.15,49.75-.02,74.62.04,6.9-3.58,16.67,11.67,14.64-16.27,4.28-30.91,2.8-45.43,2.72-.55-4.92,2.13-4.71,4.19-4.45,6,.74,6.43-2.66,6.4-7.37-.14-27.12-.02-54.25-.16-81.37-.01-2.22,1.77-5.89-1.87-6.47-2.19-.34-5.09,1.07-7.05,2.53-6.14,4.57-7.31,11.7-8.94,18.59-.63,2.66-.2,7.06-3.99,6.92-4.24-.17-2.71-4.6-2.82-7.15q-1.15-26.24,25-26.24c13.01,0,26.02.33,39.01-.15,6.52-.25,8.21,2.1,7.87,8.21Z"/>
      <path class="cls-1" d="M299,109.94c-6.72-4.48-12.58-3.72-19.13-1.57-14.2,4.67-26.44-.74-34.96-14.21-14.02-22.15-13.21-56.48,1.85-78.05,10.27-14.7,21.91-18.48,38.18-11.15,5.04,2.27,8.01.75,12.01-4.96v31.3c-4.25.08-4.21-2.69-4.6-5.27-.84-5.67-3.38-10.66-7.3-14.7-3.68-3.8-8.07-6.73-13.84-4.83-5.1,1.69-7.73,5.47-8.37,10.71-2.98,24.41-1.88,48.88-.69,73.3.33,6.8,3.75,13.46,11.62,14.44,7.17.9,11.67-4.21,14.64-10,2.92-5.72,5.01-11.86,8.52-20.37,4.13,13.15,2.04,23.64,2.07,35.36Z"/>
      <path class="cls-1" d="M1848.67,107.16h35.18c-5.06-4.01-6.18-9.04-7.47-14.02-7.06-27.26-14.06-54.53-21.37-81.72-.89-3.32.4-9.04-6.21-8.62-6,.38-5.04,5.57-6.04,9.08-7.2,25.3-14.25,50.64-21.22,76-1.9,6.92-2.65,14.37-13.62,18.39,10.39,2,17.21,2.04,24.28.78-1.27-6.02-10.39-.7-7.7-8.29,2.79-7.84-.09-19.28,11.17-21.97,4.97-1.19,12.88-3.31,15.49,4.35,2.83,8.34,9.85,17.45-2.49,26.02ZM1846.12,71.08c-3.04,1.38-7.63,1.59-10.66.3-4.57-1.96-1.61-6.49-.9-9.69,1.19-5.31,3.22-10.44,4.89-15.64.75-.07,1.51-.15,2.26-.22,1.71,5.45,3.73,10.82,4.98,16.37.65,2.89,3.38,7.08-.57,8.88Z"/>
      <path class="cls-1" d="M765.51,89.04c-5.03,17.05-19.83,24.39-36.56,18.54-3.39-1.18-6.83-6.97-11.28-.54-1.35,1.95-3.97.11-3.98-2.8-.01-9.09,0-18.18,0-27.94,5.77,1.34,4.58,4.08,4.88,6.03.81,5.24,2.54,10.1,5.8,14.27,6.25,7.98,17.78,10.17,24.76,4.85,6.87-5.26,7.53-17.28.18-24.85-5.89-6.06-12.82-11.32-19.94-15.95-15.04-9.77-17.4-24.17-15.29-40.06,1.73-13.11,15.2-21.59,29.05-19.36,5.79.93,11,7.14,17.62,1.83,1.3-1.05,2.5.88,2.79,2.39.43,2.18,1.07,4.4,1.01,6.58-.18,6.14,1.77,15.78-2.85,17.3-5.28,1.73-4.15-8.43-7.69-12.32-2.48-2.72-4.31-6.22-7.2-8.32-6.55-4.76-13.48-4.29-19.17,1.46-5.54,5.6-3.08,11.95.6,17.24,4.97,7.17,13.17,10.7,19.96,15.82,15.78,11.91,22.25,29.09,17.31,45.83Z"/>
      <path class="cls-1" d="M603.45,2214.2c-.72,11.66-7.17,19.75-15.54,19.48-7.78-.24-12.92-7.13-12.29-16.47.68-9.96,8.16-17.26,17.06-16.65,7.53.52,11.29,5.28,10.77,13.64Z"/>
    </g>
  </g>
</svg>